<svg width="141" height="32" viewBox="0 0 141 32" fill="none" xmlns="http://www.w3.org/2000/svg">
<g clip-path="url(#clip0_549_246)">
<path fill-rule="evenodd" clip-rule="evenodd" d="M2.22043 3.70953C0.539795 6.04315 0.539795 9.3621 0.539795 16C0.539795 22.6379 0.539795 25.9569 2.22043 28.2904C2.78366 29.0725 3.47003 29.7582 4.25283 30.321C6.58864 32 9.91072 32 16.5549 32C23.199 32 26.5211 32 28.8568 30.321C29.6397 29.7582 30.326 29.0725 30.8894 28.2904C32.57 25.9569 32.57 22.6379 32.57 16C32.57 9.3621 32.57 6.04315 30.8894 3.70953C30.326 2.92748 29.6397 2.24175 28.8568 1.67905C26.5211 0 23.199 0 16.5549 0C9.91072 0 6.58864 0 4.25283 1.67905C3.47003 2.24175 2.78366 2.92748 2.22043 3.70953ZM23.1038 11.6283C23.9692 12.9223 24.4312 14.4437 24.4312 16H16.5549V23.8689C14.9971 23.8689 13.4743 23.4073 12.1791 22.5427C10.8838 21.6781 9.87428 20.4491 9.27815 19.0113C8.68202 17.5734 8.52605 15.9913 8.82994 14.4649C9.13386 12.9385 9.88399 11.5364 10.9855 10.4359C12.087 9.3354 13.4905 8.58597 15.0183 8.28233C16.5461 7.97873 18.1298 8.13456 19.569 8.73012C21.0082 9.32569 22.2383 10.3343 23.1038 11.6283Z" fill="#07070A"/>
<path d="M45.703 23.0818C44.7339 23.0818 43.8313 22.9071 42.9956 22.5576C42.1718 22.2081 41.4511 21.72 40.8333 21.0933C40.2156 20.4666 39.7312 19.7314 39.3799 18.8878C39.0407 18.0442 38.8711 17.1222 38.8711 16.1219C38.8711 15.1217 39.0407 14.1997 39.3799 13.3561C39.7191 12.5004 40.1975 11.7653 40.8152 11.1506C41.433 10.5239 42.1537 10.0419 42.9775 9.70442C43.8132 9.35492 44.7216 9.18018 45.703 9.18018C46.6841 9.18018 47.5623 9.34288 48.3373 9.66828C49.1247 9.99366 49.791 10.4275 50.3361 10.9698C50.8811 11.5122 51.2689 12.1148 51.4989 12.7776L49.0097 13.9707C48.7797 13.3199 48.3738 12.7836 47.7923 12.3618C47.2231 11.928 46.5266 11.711 45.703 11.711C44.9033 11.711 44.201 11.8978 43.5953 12.2714C42.9896 12.645 42.517 13.1633 42.1781 13.8261C41.8509 14.4769 41.6874 15.2422 41.6874 16.1219C41.6874 17.0017 41.8509 17.773 42.1781 18.4359C42.517 19.0987 42.9896 19.6169 43.5953 19.9906C44.201 20.3641 44.9033 20.551 45.703 20.551C46.5266 20.551 47.2231 20.34 47.7923 19.9182C48.3738 19.4844 48.7797 18.9421 49.0097 18.2913L51.4989 19.4844C51.2689 20.1472 50.8811 20.7498 50.3361 21.2921C49.791 21.8345 49.1247 22.2683 48.3373 22.5937C47.5623 22.9191 46.6841 23.0818 45.703 23.0818Z" fill="#07070A"/>
<path d="M57.8529 23.082C56.8715 23.082 55.9752 22.8591 55.1637 22.4132C54.3642 21.9673 53.7223 21.3587 53.2377 20.5873C52.7653 19.804 52.5291 18.9182 52.5291 17.9299C52.5291 16.9296 52.7653 16.0439 53.2377 15.2725C53.7223 14.5012 54.3642 13.8926 55.1637 13.4467C55.9752 13.0008 56.8715 12.7778 57.8529 12.7778C58.834 12.7778 59.7243 13.0008 60.5237 13.4467C61.3232 13.8926 61.9591 14.5012 62.4316 15.2725C62.916 16.0439 63.1583 16.9296 63.1583 17.9299C63.1583 18.9182 62.916 19.804 62.4316 20.5873C61.9591 21.3587 61.3232 21.9673 60.5237 22.4132C59.7243 22.8591 58.834 23.082 57.8529 23.082ZM57.8529 20.6416C58.3494 20.6416 58.7794 20.5271 59.1428 20.2981C59.5182 20.0691 59.8091 19.7497 60.0149 19.34C60.2331 18.9302 60.3421 18.4602 60.3421 17.9299C60.3421 17.3997 60.2331 16.9357 60.0149 16.538C59.8091 16.1282 59.5182 15.8088 59.1428 15.5799C58.7794 15.3388 58.3494 15.2183 57.8529 15.2183C57.3562 15.2183 56.9201 15.3388 56.5446 15.5799C56.1689 15.8088 55.8723 16.1282 55.6544 16.538C55.4483 16.9357 55.3453 17.3997 55.3453 17.9299C55.3453 18.4602 55.4483 18.9302 55.6544 19.34C55.8723 19.7497 56.1689 20.0691 56.5446 20.2981C56.9201 20.5271 57.3562 20.6416 57.8529 20.6416Z" fill="#07070A"/>
<path d="M64.7637 22.8651V12.9948H67.3074V14.9471L67.1623 14.5133C67.3922 13.9228 67.7616 13.4889 68.2705 13.2117C68.7913 12.9225 69.397 12.7778 70.0875 12.7778C70.8384 12.7778 71.4926 12.9345 72.0497 13.2479C72.6192 13.5612 73.0613 14.0011 73.3761 14.5675C73.6912 15.1219 73.8484 15.7727 73.8484 16.5199V22.8651H71.1232V17.0984C71.1232 16.7127 71.0445 16.3813 70.887 16.1041C70.7415 15.8269 70.5296 15.61 70.2511 15.4533C69.9846 15.2967 69.6695 15.2183 69.3062 15.2183C68.9549 15.2183 68.6398 15.2967 68.3613 15.4533C68.0827 15.61 67.8648 15.8269 67.7073 16.1041C67.5618 16.3813 67.4891 16.7127 67.4891 17.0984V22.8651H64.7637Z" fill="#07070A"/>
<path d="M78.5702 22.865L74.6638 12.9946H77.6072L80.3145 20.4606H79.1879L81.8953 12.9946H84.8387L80.9323 22.865H78.5702Z" fill="#07070A"/>
<path d="M90.6398 23.082C89.586 23.082 88.6715 22.8531 87.8962 22.3951C87.121 21.9251 86.5216 21.2984 86.0976 20.515C85.6736 19.7317 85.4614 18.8639 85.4614 17.9119C85.4614 16.9236 85.6796 16.0439 86.1157 15.2725C86.5638 14.5012 87.1635 13.8926 87.9144 13.4467C88.6655 13.0008 89.5135 12.7778 90.4581 12.7778C91.2455 12.7778 91.942 12.9044 92.5477 13.1575C93.1534 13.3985 93.6622 13.742 94.0739 14.1879C94.4979 14.6338 94.819 15.152 95.0369 15.7426C95.255 16.321 95.364 16.9538 95.364 17.6407C95.364 17.8335 95.3519 18.0264 95.3278 18.2192C95.3154 18.3999 95.2852 18.5566 95.2367 18.6892H87.8054V16.7007H93.6924L92.4023 17.6407C92.5235 17.1225 92.5175 16.6645 92.3841 16.2668C92.251 15.857 92.0147 15.5377 91.6755 15.3087C91.3484 15.0677 90.9428 14.9471 90.4581 14.9471C89.9858 14.9471 89.5799 15.0616 89.2407 15.2906C88.9018 15.5196 88.6474 15.857 88.4778 16.3029C88.3082 16.7489 88.2415 17.2912 88.2777 17.9299C88.2294 18.4843 88.2961 18.9724 88.4778 19.3942C88.6594 19.816 88.938 20.1475 89.3134 20.3885C89.6891 20.6175 90.1433 20.732 90.6763 20.732C91.1607 20.732 91.5726 20.6355 91.9118 20.4427C92.2631 20.2499 92.5356 19.9848 92.7294 19.6473L94.9098 20.6777C94.716 21.1598 94.407 21.5816 93.983 21.9432C93.5714 22.3047 93.0807 22.5879 92.5115 22.7928C91.942 22.9856 91.3182 23.082 90.6398 23.082Z" fill="#07070A"/>
<path d="M96.9688 22.8651V12.9947H99.5125V15.3629L99.3308 15.0194C99.5488 14.1878 99.9061 13.6274 100.403 13.3382C100.912 13.0369 101.511 12.8862 102.201 12.8862H102.783V15.2363H101.929C101.263 15.2363 100.724 15.4412 100.312 15.851C99.9 16.2487 99.6942 16.8151 99.6942 17.5503V22.8651H96.9688Z" fill="#07070A"/>
<path d="M109.111 22.9734C107.912 22.9734 106.979 22.654 106.313 22.0153C105.659 21.3644 105.332 20.4606 105.332 19.3036V15.3446H103.66V12.9946H103.751C104.26 12.9946 104.647 12.868 104.914 12.6149C105.192 12.3618 105.332 11.9822 105.332 11.476V10.7529H108.057V12.9946H110.383V15.3446H108.057V19.1228C108.057 19.4603 108.118 19.7435 108.239 19.9725C108.36 20.1894 108.548 20.3521 108.802 20.4606C109.056 20.569 109.372 20.6233 109.747 20.6233C109.832 20.6233 109.929 20.6172 110.038 20.6052C110.147 20.5931 110.262 20.5811 110.383 20.569V22.8649C110.201 22.889 109.995 22.9131 109.765 22.9372C109.535 22.9613 109.317 22.9734 109.111 22.9734Z" fill="#07070A"/>
<path d="M112.18 22.8653V9.39746H114.996V16.1404L114.215 15.8692L119.629 9.39746H123.154L117.794 15.8331L117.958 13.8445L123.263 22.8653H119.975L116.668 17.1708L114.996 19.1774V22.8653H112.18Z" fill="#07070A"/>
<path d="M124.454 22.8653V12.9949H127.179V22.8653H124.454ZM124.454 12.1091V9.39746H127.179V12.1091H124.454Z" fill="#07070A"/>
<path d="M133.953 22.9734C132.753 22.9734 131.821 22.654 131.154 22.0153C130.5 21.3644 130.173 20.4606 130.173 19.3036V15.3446H128.502V12.9946H128.593C129.101 12.9946 129.489 12.868 129.755 12.6149C130.034 12.3618 130.173 11.9822 130.173 11.476V10.7529H132.899V12.9946H135.224V15.3446H132.899V19.1228C132.899 19.4603 132.959 19.7435 133.08 19.9725C133.201 20.1894 133.389 20.3521 133.644 20.4606C133.898 20.569 134.213 20.6233 134.588 20.6233C134.673 20.6233 134.77 20.6172 134.879 20.6052C134.988 20.5931 135.103 20.5811 135.224 20.569V22.8649C135.043 22.889 134.837 22.9131 134.607 22.9372C134.376 22.9613 134.158 22.9734 133.953 22.9734Z" fill="#07070A"/>
<path d="M136.976 11.9246V9.05859H138.074C138.271 9.05859 138.446 9.09322 138.598 9.16246C138.752 9.23171 138.872 9.33432 138.96 9.47024C139.047 9.60616 139.09 9.77413 139.09 9.97419C139.09 10.1691 139.045 10.3358 138.956 10.4743C138.866 10.6102 138.745 10.7128 138.594 10.7821L139.248 11.9246H138.578L137.87 10.659L138.255 10.8859H137.573V11.9246H136.976ZM137.573 10.3666H138.078C138.162 10.3666 138.235 10.3499 138.297 10.3166C138.359 10.2832 138.406 10.2371 138.44 10.1781C138.476 10.1191 138.494 10.0511 138.494 9.97419C138.494 9.89469 138.476 9.82544 138.44 9.76645C138.406 9.70746 138.359 9.6613 138.297 9.62796C138.235 9.59462 138.162 9.57794 138.078 9.57794H137.573V10.3666Z" fill="#07070A"/>
<path fill-rule="evenodd" clip-rule="evenodd" d="M138.112 8.04883C136.762 8.04883 135.667 9.14255 135.667 10.4917C135.667 11.8409 136.762 12.9346 138.112 12.9346C139.463 12.9346 140.557 11.8409 140.557 10.4917C140.557 9.14255 139.463 8.04883 138.112 8.04883ZM135.167 10.4917C135.167 8.86641 136.485 7.54883 138.112 7.54883C139.739 7.54883 141.058 8.86641 141.058 10.4917C141.058 12.117 139.739 13.4346 138.112 13.4346C136.485 13.4346 135.167 12.117 135.167 10.4917Z" fill="#07070A"/>
</g>
<defs>
<clipPath id="clip0_549_246">
<rect width="140.46" height="32" fill="white" transform="translate(0.539795)"/>
</clipPath>
</defs>
</svg>
