<svg width="24" height="25" viewBox="0 0 24 25" fill="none" xmlns="http://www.w3.org/2000/svg">
<path d="M3 11.0887V15.0762C3 17.7068 3 19.0221 3.59458 19.987C3.92224 20.5188 4.36988 20.9664 4.90164 21.2941C5.86658 21.8887 7.18189 21.8887 9.8125 21.8887H13.8C16.7998 21.8887 18.2997 21.8887 19.3511 21.1247C19.6907 20.878 19.9893 20.5794 20.2361 20.2398C21 19.1884 21 17.6885 21 14.6887V11.0887C21 8.08889 21 6.58899 20.2361 5.53753C19.9893 5.19795 19.6907 4.89932 19.3511 4.6526C18.2997 3.88867 16.7998 3.88867 13.8 3.88867H10.2C7.20021 3.88867 5.70032 3.88867 4.64886 4.6526C4.30928 4.89932 4.01065 5.19795 3.76393 5.53753C3 6.58899 3 8.08889 3 11.0887Z" stroke="#39393B" stroke-width="1.5"/>
<path fill-rule="evenodd" clip-rule="evenodd" d="M14.638 10.3842C14.2538 10.7788 14.2778 11.1005 14.2778 11.7873V12.8696H16.8333L16.3125 15.0341H14.2778V21.8887H11.9444V15.0341H10V12.8696H11.9444V11.7873C11.9444 11.031 12.0484 9.81458 12.9064 8.93332C13.8734 7.94022 15.0556 7.68306 17 8.04382V10.2084C15.4916 9.82677 14.8412 10.1755 14.638 10.3842Z" fill="#39393B"/>
</svg>
