<svg width="24" height="25" viewBox="0 0 24 25" fill="none" xmlns="http://www.w3.org/2000/svg">
<path fill-rule="evenodd" clip-rule="evenodd" d="M12 21.8887C16.9706 21.8887 21 17.8592 21 12.8887C21 7.91811 16.9706 3.88867 12 3.88867C7.02944 3.88867 3 7.91811 3 12.8887C3 17.8592 7.02944 21.8887 12 21.8887ZM15.8536 10.7422C16.0488 10.547 16.0488 10.2304 15.8536 10.0351C15.6583 9.83986 15.3417 9.83986 15.1464 10.0351L10.5 14.6816L8.85355 13.0351C8.65829 12.8399 8.34171 12.8399 8.14645 13.0351C7.95118 13.2304 7.95118 13.547 8.14645 13.7422L9.93431 15.5301L9.94269 15.5385L9.9427 15.5385C9.97881 15.5747 10.0298 15.6258 10.0806 15.6666C10.1427 15.7166 10.2476 15.788 10.3957 15.8114C10.4648 15.8224 10.5352 15.8224 10.6043 15.8114C10.7524 15.788 10.8573 15.7166 10.9194 15.6666C10.9702 15.6258 11.0212 15.5747 11.0573 15.5385L11.0657 15.5301L15.8536 10.7422Z" fill="#07070A"/>
</svg>
