<svg width="24" height="25" viewBox="0 0 24 25" fill="none" xmlns="http://www.w3.org/2000/svg">
<path d="M10 19.8887H14C16.8089 19.8887 18.2134 19.8887 19.2223 19.2146C19.659 18.9227 20.034 18.5477 20.3259 18.111C21 17.1021 21 15.6976 21 12.8887C21 10.0797 21 8.67529 20.3259 7.66639C20.034 7.22963 19.659 6.85463 19.2223 6.56279C18.2134 5.88867 16.8089 5.88867 14 5.88867H10C7.19108 5.88867 5.78661 5.88867 4.77772 6.56279C4.34096 6.85463 3.96596 7.22963 3.67412 7.66639C3 8.67529 3 10.0797 3 12.8887C3 15.6976 3 17.1021 3.67412 18.111C3.96596 18.5477 4.34096 18.9227 4.77772 19.2146C5.78661 19.8887 7.19108 19.8887 10 19.8887Z" stroke="#39393B" stroke-width="1.5"/>
<path d="M12.7801 11.2787C14.0169 11.8971 14.6354 12.2063 14.7395 12.669C14.7721 12.8137 14.7721 12.9637 14.7395 13.1083C14.6354 13.571 14.0169 13.8802 12.7801 14.4986L12.605 14.5862C11.5762 15.1006 11.0618 15.3578 10.657 15.21C10.5291 15.1633 10.4122 15.091 10.3132 14.9975C10 14.7016 10 14.1265 10 12.9762L10 12.8011C10 11.6509 10 11.0758 10.3132 10.7798C10.4122 10.6864 10.5291 10.6141 10.657 10.5674C11.0618 10.4196 11.5762 10.6768 12.605 11.1912L12.7801 11.2787Z" stroke="#39393B" stroke-width="1.5"/>
</svg>
